<svg xmlns="http://www.w3.org/2000/svg" version="1.1" xmlns:xlink="http://www.w3.org/1999/xlink" xmlns:svgjs="http://svgjs.dev/svgjs" width="1000" height="1000" viewBox="0 0 1000 1000"><rect width="1000" height="1000" fill="#ffffff"></rect><g transform="matrix(0.7,0,0,0.7,149.93311740890692,149.93340080971672)"><svg viewBox="0 0 247 247" data-background-color="#ffffff" preserveAspectRatio="xMidYMid meet" height="1000" width="1000" xmlns="http://www.w3.org/2000/svg" xmlns:xlink="http://www.w3.org/1999/xlink"><defs></defs><g id="tight-bounds" transform="matrix(1,0,0,1,0.02359999999998763,0.02349999999995589)"><svg viewBox="0 0 246.95280000000002 246.95280000000002" height="246.95280000000002" width="246.95280000000002"><g><svg viewBox="0 0 246.95280000000002 246.95280000000002" height="246.95280000000002" width="246.95280000000002"><g><svg viewBox="0 0 246.95280000000002 246.95280000000002" height="246.95280000000002" width="246.95280000000002"><g><svg viewBox="0 0 246.95280000000002 246.95280000000002" height="246.95280000000002" width="246.95280000000002"><g><svg viewBox="0 0 246.95280000000002 246.95280000000002" height="246.95280000000002" width="246.95280000000002"><g><svg viewBox="0 0 246.95280000000002 246.95280000000002" height="246.95280000000002" width="246.95280000000002"><g transform="matrix(1,0,0,1,65.53305986374762,65.53329973474172)"><svg viewBox="0 0 115.88668027250478 115.88620053051658" height="115.88620053051658" width="115.88668027250478"><g><svg xmlns="http://www.w3.org/2000/svg" xmlns:xlink="http://www.w3.org/1999/xlink" version="1.0" x="0" y="0" viewBox="4.667734146118164 4.6859588623046875 90.3050308227539 90.30465698242188" enable-background="new 0 0 100 100" xml:space="preserve" height="115.88620053051658" width="115.88668027250478" class="icon-o-0" data-fill-palette-color="accent" id="o-0"><path d="M17.504 35.743c-1.334 8.611 0.522 17.134 5.093 23.382 3.514 4.801 8.413 7.905 13.796 8.739 5.677 0.88 11.253-0.429 15.703-3.685 1.248-0.912 2.36-1.946 3.326-3.076-2.222 0.978-4.814 1.267-7.626 0.831-11.717-1.816-19.673-13.464-17.735-25.964 0.934-6.03 4.384-11.497 9.713-15.397 6.768-4.952 15.953-6.97 25.201-5.537 7.474 1.158 17.67 5.964 25.56 15.213 0 0-22.835-39.421-56.115-20.356C23.689 16.04 18.653 28.323 17.504 35.743z" fill="#000000" data-fill-palette-color="accent"></path><path d="M82.544 65.256c1.659-8.555 0.125-17.141-4.207-23.557-3.331-4.931-8.109-8.217-13.457-9.253-5.639-1.094-11.261 0.004-15.83 3.091-1.282 0.863-2.431 1.854-3.44 2.947 2.257-0.894 4.859-1.084 7.652-0.543 11.64 2.257 19.151 14.196 16.744 26.616-1.161 5.989-4.815 11.324-10.288 15.019-6.949 4.692-16.205 6.364-25.393 4.582C26.902 82.719 16.894 77.532 9.358 67.992c0 0 21.331 40.255 55.307 22.457C75.621 84.712 81.115 72.628 82.544 65.256z" fill="#000000" data-fill-palette-color="accent"></path><path d="M35.726 82.88c8.611 1.334 17.133-0.522 23.381-5.094 4.801-3.514 7.905-8.413 8.74-13.796 0.879-5.676-0.429-11.253-3.686-15.702-0.912-1.248-1.946-2.36-3.076-3.327 0.979 2.222 1.267 4.815 0.831 7.626-1.816 11.717-13.463 19.673-25.965 17.736-6.029-0.934-11.497-4.385-15.395-9.713-4.952-6.768-6.971-15.954-5.538-25.202 1.158-7.474 5.964-17.67 15.213-25.559 0 0-39.421 22.835-20.356 56.115C16.022 76.695 28.305 81.73 35.726 82.88z" fill="#000000" data-fill-palette-color="accent"></path><path d="M90.432 35.718c-5.738-10.955-17.822-16.45-25.194-17.879-8.554-1.659-17.141-0.125-23.557 4.208-4.931 3.331-8.217 8.108-9.254 13.456-1.094 5.64 0.004 11.261 3.092 15.83 0.863 1.282 1.854 2.431 2.946 3.441-0.894-2.257-1.084-4.859-0.542-7.652 2.257-11.64 14.196-19.151 26.615-16.744 5.99 1.161 11.324 4.816 15.019 10.289 4.693 6.949 6.363 16.204 4.583 25.392-1.44 7.423-6.626 17.431-16.167 24.966C67.973 91.025 108.228 69.694 90.432 35.718z" fill="#000000" data-fill-palette-color="accent"></path></svg></g></svg></g><path d="M26.224 99.096l-24.285-6.831 1.073-3.815 24.285 6.831zM36.106 75.574l-21.244-13.606 2.677-4.18 14.803 4.896 0.039-0.06-12.721-8.148 1.906-2.976 21.244 13.607-2.198 3.432-18.074-5.925-0.039 0.061 15.508 9.932zM61.631 46.843c-1.504 1.194-2.982 1.67-4.432 1.431-1.45-0.249-2.809-1.174-4.079-2.774v0l-0.895-1.128 2.936-2.33 1.079 1.36c1.012 1.275 2.053 1.487 3.126 0.636v0c0.523-0.415 0.8-0.887 0.832-1.416 0.027-0.525-0.235-1.135-0.786-1.828v0c-0.66-0.832-1.429-1.413-2.307-1.742-0.873-0.333-2.17-0.538-3.892-0.615v0c-2.177-0.115-3.881-0.428-5.111-0.938-1.23-0.51-2.301-1.338-3.211-2.485v0c-1.24-1.563-1.804-3.084-1.692-4.564 0.108-1.485 0.914-2.825 2.418-4.018v0c1.488-1.181 2.954-1.645 4.399-1.391 1.44 0.248 2.795 1.172 4.064 2.773v0l0.648 0.816-2.936 2.33-0.807-1.016c-0.538-0.677-1.062-1.065-1.574-1.163-0.507-0.102-1.014 0.048-1.521 0.45v0c-1.035 0.821-1.053 1.861-0.053 3.12v0c0.567 0.715 1.29 1.232 2.169 1.551 0.875 0.314 2.173 0.51 3.895 0.587v0c2.193 0.102 3.902 0.42 5.124 0.953 1.219 0.528 2.321 1.413 3.308 2.656v0c1.287 1.622 1.873 3.182 1.758 4.681-0.114 1.499-0.934 2.854-2.46 4.064zM87.149 31.954l-7.488-20.285-3.89 1.436-1.248-3.382 11.498-4.245 1.248 3.383-3.89 1.436 7.488 20.285zM112.153 25.665l2.868-25.401 5.356-0.264 5.344 24.995-3.958 0.195-0.961-4.963 0.004 0.071-4.499 0.222-0.481 4.963zM116.608 17.08l3.56-0.176-2.38-12.369-0.071 0.004zM145.91 27.602l6.523-24.37 10.123 2.709-0.932 3.483-6.295-1.685-1.817 6.788 4.943 1.323-0.932 3.483-4.943-1.323-2.842 10.616zM179.07 42.335c-1.634-1.059-2.586-2.333-2.855-3.821-0.269-1.489 0.147-3.081 1.246-4.778v0l7.209-11.127c1.096-1.692 2.38-2.722 3.852-3.09 1.468-0.363 3.02-0.015 4.654 1.044v0c1.629 1.055 2.577 2.327 2.847 3.815 0.265 1.494-0.15 3.087-1.247 4.779v0l-7.208 11.126c-1.1 1.697-2.384 2.727-3.853 3.091-1.468 0.363-3.017 0.017-4.645-1.039zM181.03 39.31c1.149 0.744 2.173 0.422 3.073-0.967v0l7.486-11.555c0.9-1.389 0.775-2.455-0.373-3.199v0c-1.154-0.748-2.181-0.428-3.081 0.961v0l-7.487 11.555c-0.9 1.389-0.772 2.457 0.382 3.205zM202.806 64.407c-1.211-1.525-1.707-3.036-1.488-4.532 0.22-1.497 1.122-2.874 2.706-4.132v0l10.38-8.246c1.578-1.254 3.124-1.82 4.637-1.7 1.508 0.124 2.867 0.949 4.078 2.473v0c1.207 1.52 1.701 3.028 1.481 4.524-0.225 1.501-1.127 2.878-2.705 4.132v0l-10.381 8.246c-1.584 1.258-3.129 1.825-4.637 1.701-1.508-0.124-2.865-0.946-4.071-2.466zM205.629 62.164c0.851 1.072 1.925 1.093 3.22 0.064v0l10.781-8.564c1.296-1.029 1.518-2.08 0.666-3.151v0c-0.856-1.077-1.931-1.101-3.227-0.072v0l-10.78 8.564c-1.296 1.029-1.516 2.082-0.66 3.159zM216.663 87.392l23.719-8.593 2.06 5.685c0.673 1.857 0.677 3.427 0.011 4.71-0.656 1.288-1.944 2.28-3.864 2.976v0l-11.995 4.345c-1.921 0.696-3.545 0.759-4.873 0.191-1.326-0.562-2.326-1.772-2.999-3.629v0zM221.402 89.89l0.686 1.892c0.223 0.615 0.572 1.02 1.049 1.217 0.483 0.194 1.131 0.144 1.944-0.151v0l12.331-4.467c0.813-0.295 1.34-0.67 1.579-1.126 0.247-0.459 0.259-0.995 0.036-1.61v0l-0.685-1.892zM8.246 173.245l-0.619-1.84c-0.293-0.871-0.379-1.607-0.258-2.208 0.121-0.601 0.439-1.247 0.954-1.938v0l1.581-2.061c-0.138-0.923-0.108-1.817 0.09-2.681 0.189-0.868 0.548-1.671 1.075-2.409 0.528-0.738 1.215-1.407 2.062-2.008 0.847-0.601 1.841-1.093 2.984-1.478v0c1.304-0.438 2.529-0.649 3.677-0.633 1.146 0.01 2.182 0.218 3.109 0.625 0.927 0.407 1.726 0.989 2.398 1.747 0.674 0.765 1.191 1.683 1.551 2.755v0c0.36 1.071 0.502 2.112 0.425 3.122-0.075 1.017-0.36 1.964-0.855 2.841-0.493 0.884-1.193 1.676-2.1 2.377-0.905 0.707-2.009 1.279-3.312 1.717v0c-1.162 0.391-2.261 0.602-3.299 0.635-1.031 0.031-1.979-0.096-2.844-0.38-0.866-0.291-1.637-0.725-2.313-1.302-0.684-0.582-1.25-1.282-1.698-2.101v0l-1.2 1.75c-0.309 0.449-0.49 0.851-0.542 1.206-0.057 0.364-0.003 0.791 0.161 1.282v0l0.192 0.571zM11.709 166.207v0c0.441 1.31 1.229 2.202 2.365 2.675 1.136 0.473 2.491 0.445 4.066-0.085v0l3.727-1.254c1.575-0.53 2.672-1.326 3.292-2.389 0.619-1.063 0.709-2.25 0.268-3.56v0c-0.443-1.317-1.232-2.211-2.368-2.684-1.134-0.466-2.488-0.435-4.063 0.095v0l-3.727 1.253c-1.575 0.53-2.673 1.323-3.295 2.38-0.619 1.063-0.708 2.253-0.265 3.569zM18.12 184.377v0c-0.558-1.06-0.924-2.018-1.098-2.873-0.167-0.858-0.132-1.654 0.105-2.388 0.234-0.724 0.676-1.391 1.324-2.001 0.645-0.617 1.5-1.206 2.567-1.768v0l8.061-4.245-0.824-1.564 1.157-0.609 2.989 5.675-1.157 0.609-0.823-1.563-8.269 4.355c-0.747 0.393-1.36 0.793-1.839 1.199-0.479 0.406-0.826 0.843-1.041 1.311-0.225 0.465-0.307 0.966-0.247 1.504 0.057 0.547 0.262 1.155 0.614 1.823v0c0.708 1.343 1.56 2.107 2.557 2.29 1 0.174 2.241-0.13 3.722-0.91v0l8.296-4.369-0.823-1.564 1.157-0.609 2.38 4.518-1.157 0.61-0.824-1.564-7.925 4.174c-1.03 0.543-1.979 0.919-2.845 1.13-0.867 0.21-1.666 0.242-2.397 0.096-0.731-0.146-1.399-0.487-2.004-1.022-0.599-0.539-1.151-1.287-1.656-2.245zM23.621 193.469l1.077-0.74 1.001 1.456 11.778-8.091-1.001-1.456 1.078-0.74 3.637 5.295-1.077 0.74-1.007-1.465-11.777 8.091 1.006 1.465-1.078 0.74zM33.739 206.854v0c-0.737-0.857-1.236-1.762-1.498-2.713-0.261-0.961-0.303-1.93-0.128-2.907 0.166-0.977 0.55-1.941 1.153-2.89 0.598-0.954 1.386-1.851 2.361-2.689v0c1.069-0.919 2.134-1.596 3.196-2.033 1.066-0.431 2.084-0.651 3.056-0.66 0.976-0.004 1.888 0.196 2.736 0.597 0.848 0.412 1.598 0.997 2.25 1.756v0c0.684 0.795 1.1 1.551 1.248 2.268 0.149 0.716 0.118 1.313-0.091 1.789v0l0.079 0.093 1.124-0.966 1.438 1.674-3.896 3.348-1.438-1.673 0.898-0.772c0.625-0.537 0.917-1.21 0.877-2.02-0.045-0.805-0.425-1.623-1.14-2.454v0c-0.47-0.547-0.979-0.945-1.525-1.195-0.537-0.248-1.094-0.353-1.671-0.314-0.578 0.038-1.164 0.197-1.76 0.475-0.601 0.283-1.188 0.671-1.761 1.164v0l-2.866 2.463c-1.26 1.083-1.957 2.23-2.092 3.442-0.13 1.207 0.274 2.355 1.21 3.445v0c0.715 0.831 1.533 1.345 2.455 1.54 0.922 0.195 1.849 0.13 2.781-0.196v0l0.282 1.253c-0.518 0.212-1.087 0.355-1.705 0.429-0.619 0.074-1.252 0.048-1.899-0.079-0.652-0.122-1.294-0.356-1.924-0.703-0.63-0.357-1.213-0.847-1.75-1.472zM40.472 213.594l0.851-0.993 1.342 1.15 9.298-10.849-1.341-1.15 0.85-0.993 4.878 4.181-0.85 0.993-1.35-1.157-4.918 5.739 0.093 0.08 3.658-0.47 6.503-0.776-1.396-1.196 0.851-0.993 4.172 3.576-0.851 0.993-1.272-1.091-7.061 0.769-1.555 10.666 1.194 1.023-0.85 0.993-4.979-4.267 0.85-0.993 1.265 1.084 1.29-8.27-3.155 0.322-3.138 3.661 1.35 1.156-0.851 0.993zM53.008 228.358v0c0.798-0.082 1.506-0.225 2.124-0.429 0.618-0.205 1.132-0.48 1.542-0.827v0l-0.034-0.023c-0.405-0.276-0.646-0.635-0.724-1.076-0.078-0.441 0.025-0.869 0.308-1.286v0l0.081-0.118c0.265-0.388 0.623-0.634 1.074-0.739 0.447-0.099 0.904 0.011 1.37 0.33v0c0.467 0.319 0.738 0.706 0.814 1.162 0.067 0.458-0.032 0.881-0.297 1.269v0l-0.202 0.295c-0.23 0.337-0.523 0.645-0.877 0.922-0.351 0.272-0.737 0.511-1.158 0.718-0.412 0.205-0.849 0.368-1.312 0.49-0.466 0.127-0.922 0.203-1.368 0.228v0zM66.353 232.553l0.572-1.176 1.589 0.772 6.246-12.851-1.59-0.773 0.572-1.176 11.63 5.652-1.862 3.831-1.975-0.96 1.237-2.545-5.475-2.66-2.625 5.401 3.702 1.8 0.75-1.544 1.442 0.701-2.125 4.373-1.442-0.701 0.75-1.543-3.702-1.8-2.889 5.944 5.687 2.764 1.375-2.83 1.984 0.964-2 4.116zM80.724 239.199l0.388-1.248 1.2 0.373 9.757-13.301 2.643 0.821 0.504 16.488 1.2 0.373-0.388 1.248-6.037-1.875 0.387-1.249 1.99 0.618-0.097-4.265-5.843-1.815-2.497 3.46 1.99 0.618-0.388 1.248zM92.047 227.401l-4.839 6.764 5.111 1.588-0.165-8.319zM104.397 245.74v0c-0.986-0.171-1.756-0.474-2.309-0.909-0.552-0.441-0.902-0.913-1.05-1.415v0l-0.111-0.02-0.245 1.409-2.173-0.377 0.848-4.891 2.174 0.377-0.187 1.077c-0.143 0.825 0.017 1.516 0.48 2.074 0.471 0.552 1.31 0.932 2.518 1.141v0c1.275 0.221 2.243 0.119 2.904-0.305 0.668-0.423 1.077-1.071 1.228-1.943v0c0.136-0.785 0.026-1.423-0.332-1.913-0.356-0.497-1.022-0.962-1.997-1.393v0l-1.167-0.503c-0.748-0.309-1.41-0.659-1.985-1.049-0.567-0.396-1.029-0.839-1.386-1.329-0.358-0.484-0.607-1.024-0.745-1.622-0.132-0.596-0.132-1.27-0.002-2.022v0c0.119-0.684 0.354-1.286 0.707-1.805 0.353-0.519 0.799-0.943 1.34-1.271 0.539-0.321 1.16-0.535 1.863-0.641 0.709-0.105 1.487-0.084 2.332 0.062v0c0.953 0.165 1.687 0.455 2.202 0.869 0.522 0.415 0.857 0.857 1.004 1.325v0l0.121 0.021 0.227-1.308 2.163 0.375-0.823 4.75-2.164-0.375 0.187-1.077c0.141-0.812-0.027-1.477-0.504-1.995-0.478-0.511-1.304-0.869-2.478-1.072v0c-1.1-0.191-1.957-0.091-2.572 0.3-0.621 0.39-0.996 0.961-1.126 1.712v0c-0.137 0.792 0.002 1.445 0.417 1.959 0.409 0.513 1.146 1.004 2.212 1.472v0l1.077 0.425c1.479 0.637 2.573 1.421 3.282 2.353 0.708 0.938 0.944 2.088 0.708 3.45v0c-0.127 0.731-0.379 1.386-0.755 1.963-0.369 0.572-0.834 1.044-1.396 1.416-0.562 0.372-1.224 0.624-1.987 0.755-0.761 0.124-1.594 0.107-2.5-0.05zM116.569 246.723l0.042-1.307 2.123 0.069 0.176-5.472-4.432-8.962-1.256-0.04 0.042-1.307 6.36 0.205-0.042 1.306-1.96-0.063 3.429 7.142 0.122 0.003 3.881-6.905-1.96-0.063 0.042-1.307 4.961 0.16-0.042 1.306-1.255-0.04-4.991 8.372-0.186 5.758 2.124 0.068-0.042 1.307zM135.24 246.508l-0.211-1.29 1.24-0.203 2.785-16.259 2.731-0.447 7.82 14.525 1.239-0.203 0.211 1.291-6.239 1.02-0.211-1.29 2.056-0.337-1.993-3.772-6.038 0.987-0.688 4.211 2.056-0.336 0.211 1.29zM140.097 230.893l-1.306 8.214 5.281-0.864-3.864-7.368zM153.442 243.223l-0.402-1.244 1.681-0.544-4.402-13.594-1.681 0.544-0.402-1.244 4.887-1.582 11.741 9.768 0.117-0.038-3.574-11.038-1.681 0.544-0.403-1.244 4.858-1.573 0.403 1.244-1.681 0.544 4.804 14.838-2.332 0.755-13.062-10.865-0.117 0.038 4.021 12.418 1.681-0.544 0.403 1.244zM172.286 236.642l-0.596-1.163 1.572-0.807-6.518-12.715-1.572 0.806-0.597-1.164 6.617-3.392c1.006-0.516 2.015-0.83 3.028-0.944 1.016-0.108 1.995-0.005 2.936 0.309 0.941 0.313 1.817 0.851 2.629 1.614 0.821 0.765 1.548 1.766 2.182 3.002v0c0.631 1.23 1.017 2.402 1.159 3.515 0.145 1.104 0.07 2.13-0.225 3.076-0.295 0.947-0.783 1.802-1.464 2.564-0.684 0.756-1.528 1.392-2.534 1.907v0zM169.363 220.752l6.406 12.498 2.118-1.086c1.479-0.758 2.389-1.722 2.73-2.892 0.344-1.179 0.127-2.529-0.653-4.049v0l-1.635-3.191c-0.78-1.521-1.749-2.486-2.907-2.894-1.149-0.406-2.463-0.23-3.941 0.528v0zM196.08 222.359l-0.818-1.019 1.76-1.414-8.871-11.045-2.946 2.366 1.771 2.206-1.72 1.382-2.667-3.321 11.571-9.293 2.667 3.321-1.712 1.375-1.771-2.206-2.947 2.366 8.87 11.046 1.752-1.407 0.819 1.019zM205.148 214.921l-0.95-0.898 0.862-0.913-7.655-14.612 1.9-2.013 15.03 6.798 0.862-0.914 0.951 0.897-4.34 4.598-0.951-0.897 1.431-1.515-3.874-1.789-4.2 4.45 2.01 3.764 1.43-1.516 0.95 0.898zM199.531 199.563l3.947 7.321 3.674-3.892-7.544-3.51zM221.433 196.536v0c-0.587 0.81-1.198 1.369-1.832 1.675-0.639 0.302-1.217 0.409-1.733 0.321v0l-0.066 0.091 1.158 0.839-1.295 1.786-4.019-2.913 1.294-1.786 0.885 0.641c0.678 0.491 1.369 0.652 2.074 0.481 0.703-0.18 1.413-0.767 2.132-1.759v0c0.759-1.048 1.094-1.962 1.003-2.742-0.086-0.786-0.488-1.438-1.204-1.958v0c-0.645-0.468-1.266-0.649-1.864-0.544-0.603 0.101-1.313 0.495-2.13 1.181v0l-0.965 0.827c-0.607 0.536-1.212 0.976-1.815 1.321-0.605 0.335-1.206 0.556-1.804 0.661-0.592 0.109-1.187 0.094-1.784-0.044-0.593-0.144-1.199-0.44-1.817-0.888v0c-0.562-0.408-0.999-0.884-1.31-1.429-0.311-0.545-0.495-1.133-0.552-1.762-0.051-0.626 0.03-1.277 0.244-1.955 0.218-0.683 0.578-1.372 1.082-2.067v0c0.567-0.783 1.15-1.315 1.749-1.596 0.603-0.286 1.147-0.393 1.631-0.319v0l0.072-0.099-1.075-0.779 1.289-1.778 3.903 2.829-1.289 1.778-0.884-0.641c-0.667-0.483-1.338-0.625-2.014-0.425-0.669 0.204-1.354 0.789-2.053 1.754v0c-0.655 0.904-0.942 1.718-0.861 2.441 0.077 0.729 0.425 1.317 1.042 1.764v0c0.651 0.471 1.298 0.634 1.943 0.487 0.641-0.141 1.406-0.588 2.295-1.339v0l0.856-0.78c1.222-1.048 2.408-1.686 3.556-1.913 1.154-0.223 2.291 0.071 3.41 0.882v0c0.601 0.436 1.078 0.949 1.431 1.542 0.351 0.583 0.571 1.208 0.658 1.877 0.087 0.669 0.022 1.374-0.197 2.115-0.224 0.738-0.605 1.479-1.144 2.223zM227.724 185.934l-1.155-0.613 1.058-1.993-12.514-6.641-1.771 3.338 2.499 1.326-1.034 1.949-3.762-1.996 6.956-13.11 3.762 1.997-1.029 1.94-2.499-1.326-1.772 3.338 12.514 6.64 1.053-1.985 1.155 0.613zM235.147 170.144l-1.233-0.436 0.71-2.003-5.159-1.829-9.885 1.501-0.42 1.184-1.232-0.437 2.126-5.997 1.233 0.437-0.656 1.848 7.845-1.098 0.041-0.115-5.401-5.795-0.655 1.848-1.232-0.436 1.658-4.679 1.233 0.437-0.42 1.184 6.461 7.298 5.429 1.925 0.71-2.002 1.233 0.436zM0.196 126.622c0-5.398 4.376-9.774 9.774-9.774 5.398 0 9.774 4.376 9.773 9.774 0 5.398-4.376 9.774-9.773 9.773-5.398 0-9.774-4.376-9.774-9.773zM227.21 126.622c0-5.398 4.376-9.774 9.773-9.774 5.398 0 9.774 4.376 9.774 9.774 0 5.398-4.376 9.774-9.774 9.773-5.398 0-9.774-4.376-9.773-9.773z" fill="#000000" data-fill-palette-color="primary"></path></svg></g></svg></g></svg></g></svg></g></svg></g></svg><rect width="246.95280000000002" height="246.95280000000002" fill="none" stroke="none" visibility="hidden"></rect></g></svg></g></svg>